<svg xmlns="http://www.w3.org/2000/svg" version="1.1" xmlns:xlink="http://www.w3.org/1999/xlink" xmlns:svgjs="http://svgjs.dev/svgjs" width="1000" height="1000" viewBox="0 0 1000 1000"><rect width="1000" height="1000" fill="#ffffff"></rect><g transform="matrix(0.7,0,0,0.7,150.40992237385586,260.79384648308564)"><svg viewBox="0 0 361 247" data-background-color="#ea3c12" preserveAspectRatio="xMidYMid meet" height="684" width="1000" xmlns="http://www.w3.org/2000/svg" xmlns:xlink="http://www.w3.org/1999/xlink"><g id="tight-bounds" transform="matrix(1,0,0,1,-0.21140279539079643,-0.10000016984574245)"><svg viewBox="0 0 361.42280417182457 247.2" height="247.2" width="361.42280417182457"><g><svg viewBox="0 0 395.52 270.5212368213429" height="247.2" width="361.42280417182457"><g transform="matrix(1,0,0,1,0,198.3418060232372)"><svg viewBox="0 0 395.52 72.17943079810567" height="72.17943079810567" width="395.52"><g id="textblocktransform"><svg viewBox="0 0 395.52 72.17943079810567" height="72.17943079810567" width="395.52" id="textblock"><g><rect width="75.54432" height="3.9034696723431326" y="60.889643699266806" fill="#000000" data-fill-palette-color="tertiary"></rect><rect width="75.54432" height="3.9034696723431326" y="60.889643699266806" x="319.97568" fill="#000000" data-fill-palette-color="tertiary"></rect></g><g><svg viewBox="0 0 395.52 43.28481927710843" height="43.28481927710843" width="395.52"><g transform="matrix(1,0,0,1,0,0)"><svg width="395.52" viewBox="1.100000023841858 -32.25 298.7799987792969 32.70000076293945" height="43.28481927710843" data-palette-color="#ffbe79"><path d="M23.15-32.05L23.45-31.65 23.15-28.55 17.55-28.85 14.3-28.85 14.15-10 14.3 0 10.25 0 10.55-9.65 10.3-28.85 7.05-28.85 1.35-28.55 1.1-28.95 1.4-32.05 23.15-32.05ZM42.2-12.95Q45.5-7.5 50.5-0.95L50.5-0.95 50.45-0.45Q48.65 0.25 46.75 0.45L46.75 0.45 46.2 0.1Q42.1-6.05 38.85-11.9L38.85-11.9 33-11.9 33-10 33.2 0 29.15 0 29.4-9.65 29.15-32.05 38.95-32.1Q43.65-32.1 46.22-29.73 48.8-27.35 48.8-22.95L48.8-22.95Q48.8-19.65 47.07-17.03 45.35-14.4 42.2-12.95L42.2-12.95ZM33.2-28.65L33.05-15.3 39.05-15.15Q44.65-16.75 44.65-22.6L44.65-22.6Q44.65-25.65 43-27.18 41.35-28.7 38.05-28.8L38.05-28.8 33.2-28.65ZM69.34-32.05L80.05 0 75.95 0 75.2-3.2 73.4-8.7 66.2-8.85 59.7-8.7 57.75-3.4 56.95 0 52.95 0 64.7-32.05 69.34-32.05ZM66.55-12L72.3-12.1 67.09-27.9 66.75-27.9 60.95-12.1 66.55-12ZM107.89-32.05L96.14 0 91.49 0 80.79-32.05 84.89-32.05 85.64-28.8 93.79-4.05 94.09-4.05 103.09-28.6 103.89-32.05 107.89-32.05ZM130.94-3.5L131.19-3.1 130.89 0 112.89 0 113.14-9.65 112.89-32.05 130.94-32.05 131.14-31.65 130.84-28.55 123.29-28.7 116.94-28.6 116.84-18.1 122.84-18 128.14-18.15 128.44-17.8 128.09-14.7 122.49-14.8 116.79-14.75 116.74-10 116.89-3.35 123.24-3.3 130.94-3.5ZM152.69-3.35L152.99-3 152.64 0 136.84 0 137.09-9.65 136.84-32.05 140.94-32.05 140.69-10 140.84-3.35 152.69-3.35ZM171.24-16.7Q178.04-15.35 178.04-8.95L178.04-8.95Q178.04-4.4 174.74-2.1 171.44 0.2 164.89 0.2L164.89 0.2Q160.49 0.2 157.84 0L157.84 0 157.79 0 158.04-9.65 157.79-32.05 166.69-32.1Q171.19-32.1 173.61-30.1 176.04-28.1 176.04-24.3L176.04-24.3Q176.04-21.6 174.79-19.65 173.54-17.7 171.24-16.7L171.24-16.7ZM171.94-23.85Q171.94-26.45 170.51-27.63 169.09-28.8 165.89-28.8L165.89-28.8 161.84-28.8 161.74-18.05 167.24-17.9Q171.94-19 171.94-23.85L171.94-23.85ZM165.49-3.15Q169.59-3.15 171.79-4.7 173.99-6.25 173.99-9.15L173.99-9.15Q173.99-14.05 167.84-14.75L167.84-14.75 161.69-14.7 161.64-10 161.79-3.3Q163.74-3.15 165.49-3.15L165.49-3.15ZM207.58-32.05L207.53-15.75 207.48-12.15Q207.58-6.25 204.38-2.95 201.18 0.35 195.28 0.35L195.28 0.35Q189.63 0.35 186.61-2.8 183.58-5.95 183.68-11.7L183.68-11.7 183.73-16.05 183.68-32.05 187.63-32.05 187.48-12.2Q187.43-7.7 189.48-5.43 191.53-3.15 195.58-3.15L195.58-3.15Q199.63-3.15 201.73-5.3 203.83-7.45 203.78-11.7L203.78-11.7 203.58-32.05 207.58-32.05ZM227.53-32.25Q234.38-32.25 238.03-28.35 241.68-24.45 241.68-17.15L241.68-17.15Q241.68-8.7 237.73-4.2 233.78 0.3 226.38 0.3L226.38 0.3Q224.33 0.3 221.41 0.23 218.48 0.15 215.98 0L215.98 0 215.93 0 216.18-9.65 215.93-32.05 215.98-32.05 227.53-32.25ZM227.03-3.05Q232.13-3.05 234.86-6.38 237.58-9.7 237.58-16.3L237.58-16.3Q237.58-28.9 227.23-28.9L227.23-28.9Q224.08-28.9 219.98-28.7L219.98-28.7 219.78-10 219.93-3.35Q221.48-3.2 223.66-3.13 225.83-3.05 227.03-3.05L227.03-3.05ZM259.83-32.25Q266.68-32.25 270.33-28.35 273.98-24.45 273.98-17.15L273.98-17.15Q273.98-8.7 270.03-4.2 266.08 0.3 258.68 0.3L258.68 0.3Q256.63 0.3 253.7 0.23 250.78 0.15 248.28 0L248.28 0 248.23 0 248.48-9.65 248.23-32.05 248.28-32.05 259.83-32.25ZM259.33-3.05Q264.43-3.05 267.15-6.38 269.88-9.7 269.88-16.3L269.88-16.3Q269.88-28.9 259.53-28.9L259.53-28.9Q256.38-28.9 252.28-28.7L252.28-28.7 252.08-10 252.23-3.35Q253.78-3.2 255.95-3.13 258.13-3.05 259.33-3.05L259.33-3.05ZM288.83-11.6L288.78-9.35 288.88 0 284.93 0 285.13-9.35 285.08-11.45 274.93-32.05 279.23-32.05 279.88-30.25 286.88-15.85 287.23-15.85 294.93-30.15 295.68-32.05 299.88-32.05 288.83-11.6Z" opacity="1" transform="matrix(1,0,0,1,0,0)" fill="#000000" class="wordmark-text-0" data-fill-palette-color="primary" id="text-0"></path></svg></g></svg></g><g transform="matrix(1,0,0,1,75.54432,53.50332627277108)"><svg viewBox="0 0 244.43135999999998 18.67610452533458" height="18.67610452533458" width="244.43135999999998"><g transform="matrix(1,0,0,1,8,0)"><svg width="228.43135999999998" viewBox="0.2900000214576721 -36.279998779296875 468.7799987792969 38.32999801635742" height="18.67610452533458" data-palette-color="#ffbe79"><path d="M20.9-33.89L32.62-33.06 19.19-14.31 18.55 0.98 6.98 0.98 7.28-14.21 0.29-32.32 12.74-33.89 14.7-23.34 20.9-33.89ZM59.64-18.7L59.64-18.7Q59.64-16.48 59.13-14.42 58.62-12.35 57.65-10.55 56.69-8.74 55.31-7.24 53.93-5.74 52.21-4.66 50.49-3.59 48.46-2.99 46.43-2.39 44.16-2.39L44.16-2.39Q41.97-2.39 39.98-2.95 37.99-3.52 36.25-4.53 34.52-5.54 33.12-6.97 31.71-8.4 30.72-10.14 29.73-11.89 29.18-13.89 28.64-15.89 28.64-18.07L28.64-18.07Q28.64-20.19 29.15-22.23 29.66-24.27 30.62-26.07 31.59-27.88 32.96-29.39 34.32-30.91 36.02-32.01 37.72-33.11 39.69-33.72 41.67-34.33 43.87-34.33L43.87-34.33Q47.41-34.33 50.33-33.23 53.24-32.13 55.31-30.09 57.37-28.05 58.51-25.16 59.64-22.27 59.64-18.7ZM48.8-18.07L48.8-18.07Q48.8-19.12 48.5-20.1 48.19-21.09 47.6-21.86 47.02-22.63 46.15-23.11 45.29-23.58 44.16-23.58L44.16-23.58Q43.02-23.58 42.11-23.17 41.21-22.75 40.56-22.03 39.91-21.31 39.57-20.35 39.23-19.38 39.23-18.31L39.23-18.31Q39.23-17.29 39.52-16.26 39.82-15.23 40.4-14.4 40.99-13.57 41.86-13.06 42.72-12.55 43.87-12.55L43.87-12.55Q45.02-12.55 45.93-13 46.85-13.45 47.48-14.22 48.12-14.99 48.46-15.99 48.8-16.99 48.8-18.07ZM90.45-34.38L90.45-34.38Q89.35-25.78 88.57-17.27 87.79-8.76 87.08-0.15L87.08-0.15 77.07 0.59 77.51-3.17Q77.02-2.61 76.37-2.2 75.73-1.78 75-1.53 74.26-1.27 73.48-1.16 72.7-1.05 71.99-1.07L71.99-1.07Q70.33-1.1 68.87-1.72 67.4-2.34 66.18-3.38 64.96-4.42 63.98-5.8 63.01-7.18 62.34-8.7 61.66-10.23 61.31-11.82 60.96-13.4 60.96-14.89L60.96-14.89Q60.96-17.09 61.04-19.45 61.13-21.8 61.35-24.17 61.57-26.54 61.92-28.86 62.28-31.18 62.81-33.3L62.81-33.3Q65.79-33.15 68.79-33.03 71.8-32.91 74.78-32.96L74.78-32.96Q74.21-30.83 73.66-28.7 73.12-26.56 72.68-24.4 72.24-22.24 71.97-20.07 71.7-17.9 71.7-15.67L71.7-15.67Q71.7-15.16 71.75-14.21 71.8-13.26 72-12.33 72.21-11.4 72.64-10.71 73.07-10.01 73.85-10.01L73.85-10.01Q74.78-10.01 75.51-10.8 76.24-11.6 76.8-12.94 77.36-14.28 77.77-16.04 78.17-17.8 78.45-19.71 78.73-21.63 78.9-23.58 79.07-25.54 79.16-27.26 79.24-28.98 79.28-30.35 79.32-31.71 79.32-32.47L79.32-32.47Q79.32-32.96 79.29-33.42 79.27-33.89 79.22-34.38L79.22-34.38Q80.81-34.33 82.37-34.3 83.93-34.28 85.52-34.28L85.52-34.28Q86.74-34.28 87.97-34.29 89.2-34.3 90.45-34.38ZM120.52-23.54L120.52-23.54Q120.52-21.63 120.2-20.08 119.87-18.53 119.16-17.24 118.45-15.94 117.33-14.84 116.2-13.75 114.62-12.74L114.62-12.74 120.43-2.39 109.44-0.24 105.68-10.64 102.65-10.55 102.21-0.39 91.72-0.39Q91.84-5.96 91.95-11.47 92.06-16.99 92.2-22.56L92.2-22.56Q92.25-25.37 92.3-28.13 92.35-30.88 92.5-33.69L92.5-33.69Q94.21-34.33 95.87-34.74 97.53-35.16 99.2-35.39 100.87-35.62 102.59-35.71 104.31-35.79 106.12-35.79L106.12-35.79Q108.9-35.79 111.5-35.02 114.1-34.25 116.11-32.71 118.11-31.18 119.32-28.88 120.52-26.59 120.52-23.54ZM109.59-22.75L109.59-22.75Q109.59-23.78 109.31-24.63 109.03-25.49 108.48-26.11 107.93-26.73 107.11-27.09 106.29-27.44 105.19-27.44L105.19-27.44Q104.7-27.44 104.24-27.38 103.78-27.32 103.34-27.2L103.34-27.2 102.95-18.12 103.53-18.12Q104.58-18.12 105.67-18.38 106.76-18.65 107.62-19.21 108.49-19.78 109.04-20.65 109.59-21.53 109.59-22.75ZM131.21-34.38L157.82-34.42 157.58-24.07 150.3-23.78 149.43-1.12 139.12-0.59 138.2-23.24 130.92-22.85 131.21-34.38ZM187.83-23.54L187.83-23.54Q187.83-21.63 187.5-20.08 187.17-18.53 186.46-17.24 185.75-15.94 184.63-14.84 183.51-13.75 181.92-12.74L181.92-12.74 187.73-2.39 176.74-0.24 172.98-10.64 169.96-10.55 169.52-0.39 159.02-0.39Q159.14-5.96 159.25-11.47 159.36-16.99 159.51-22.56L159.51-22.56Q159.56-25.37 159.6-28.13 159.65-30.88 159.8-33.69L159.8-33.69Q161.51-34.33 163.17-34.74 164.83-35.16 166.5-35.39 168.17-35.62 169.89-35.71 171.62-35.79 173.42-35.79L173.42-35.79Q176.21-35.79 178.81-35.02 181.41-34.25 183.41-32.71 185.41-31.18 186.62-28.88 187.83-26.59 187.83-23.54ZM176.89-22.75L176.89-22.75Q176.89-23.78 176.61-24.63 176.33-25.49 175.78-26.11 175.23-26.73 174.41-27.09 173.59-27.44 172.49-27.44L172.49-27.44Q172.01-27.44 171.54-27.38 171.08-27.32 170.64-27.2L170.64-27.2 170.25-18.12 170.83-18.12Q171.88-18.12 172.97-18.38 174.06-18.65 174.92-19.21 175.79-19.78 176.34-20.65 176.89-21.53 176.89-22.75ZM210.77-34.96L220.3-2.1 208.19-0.54 206.72-6.05 201.15-6.05 199.93-0.54 187.48-1.76 197.2-34.28 210.77-34.96ZM202.18-13.53L205.84-13.53 203.99-22.02 202.18-13.53ZM236.85-34.96L248.08-34.23 239.14-1.22 227.03-0.54 216.04-32.42 227.62-33.5 232.3-14.94 236.85-34.96ZM274.83-19.73L274.83-19.73Q274.83-17.6 274.54-15.48L274.54-15.48Q270.36-15.21 266.24-14.61 262.11-14.01 257.99-13.43L257.99-13.43Q258.62-11.67 259.98-10.62 261.33-9.57 263.21-9.57L263.21-9.57Q264.19-9.57 265.35-9.94 266.51-10.3 267.65-10.85 268.8-11.4 269.85-12.04 270.9-12.67 271.66-13.18L271.66-13.18 270.49-2.1Q269.53-1.37 268.42-0.85 267.31-0.34 266.12-0.02 264.92 0.29 263.7 0.44 262.48 0.59 261.31 0.59L261.31 0.59Q258.89 0.59 256.89-0.07 254.88-0.73 253.26-1.92 251.64-3.1 250.42-4.71 249.2-6.32 248.39-8.23 247.58-10.13 247.17-12.26 246.75-14.38 246.75-16.55L246.75-16.55Q246.75-18.82 247.17-21.09 247.58-23.36 248.43-25.46 249.27-27.56 250.55-29.36 251.83-31.15 253.54-32.5 255.25-33.84 257.41-34.59 259.57-35.35 262.18-35.35L262.18-35.35Q264.36-35.35 266.15-34.75 267.95-34.16 269.35-33.09 270.75-32.03 271.79-30.57 272.83-29.1 273.5-27.36 274.17-25.61 274.5-23.67 274.83-21.73 274.83-19.73ZM265.07-20.46L265.07-21Q265.07-21.68 264.92-22.4 264.77-23.12 264.44-23.71 264.11-24.29 263.58-24.67 263.04-25.05 262.23-25.05L262.23-25.05Q261.26-25.05 260.51-24.52 259.77-24 259.23-23.21 258.69-22.41 258.35-21.48 258.01-20.56 257.84-19.78L257.84-19.78 265.07-20.46ZM287.91-12.94L297.83-12.94 296.8-2.1 276.24-0.49 277.03-35.35 289.72-35.35 287.91-12.94ZM337.15-8.69L337.15-8.69Q337.15-6.67 336.41-5.2 335.66-3.74 334.42-2.71 333.17-1.68 331.55-1.04 329.93-0.39 328.17-0.02 326.41 0.34 324.64 0.46 322.87 0.59 321.33 0.59L321.33 0.59Q319.82 0.59 318.2 0.48 316.57 0.37 314.96 0.1 313.35-0.17 311.79-0.62 310.22-1.07 308.83-1.76L308.83-1.76 308.78-33.2Q310.15-33.76 311.69-34.22 313.23-34.67 314.83-34.97 316.43-35.28 318.01-35.44 319.6-35.6 321.09-35.6L321.09-35.6Q322.82-35.6 324.59-35.38 326.36-35.16 328-34.64 329.63-34.13 331.05-33.31 332.47-32.5 333.53-31.3 334.59-30.1 335.19-28.52 335.79-26.93 335.79-24.85L335.79-24.85Q335.79-23.49 335.39-22.29 335-21.09 334.27-20.14 333.54-19.19 332.49-18.52 331.44-17.85 330.12-17.53L330.12-17.53Q331.71-17.11 333.01-16.31 334.32-15.5 335.24-14.36 336.15-13.21 336.65-11.77 337.15-10.33 337.15-8.69ZM324.75-22.61L324.75-22.61Q324.75-23.32 324.46-23.82 324.16-24.32 323.74-24.63 323.31-24.95 322.81-25.1 322.31-25.24 321.92-25.24L321.92-25.24Q321.43-25.24 320.97-25.1 320.5-24.95 320.06-24.76L320.06-24.76 319.92-19.34Q320.48-19.34 321.31-19.43 322.14-19.53 322.91-19.86 323.68-20.19 324.21-20.84 324.75-21.48 324.75-22.61ZM321.28-14.65L321.28-14.65Q320.58-14.65 319.92-14.5L319.92-14.5 319.82-8.94Q320.18-8.86 320.54-8.8 320.89-8.74 321.23-8.74L321.23-8.74Q321.75-8.74 322.36-8.85 322.97-8.96 323.51-9.29 324.04-9.62 324.4-10.18 324.75-10.74 324.75-11.67L324.75-11.67Q324.75-12.6 324.4-13.18 324.04-13.77 323.53-14.1 323.02-14.43 322.41-14.54 321.8-14.65 321.28-14.65ZM367.55-34.38L367.55-34.38Q366.45-25.78 365.67-17.27 364.88-8.76 364.18-0.15L364.18-0.15 354.17 0.59 354.61-3.17Q354.12-2.61 353.47-2.2 352.82-1.78 352.09-1.53 351.36-1.27 350.58-1.16 349.8-1.05 349.09-1.07L349.09-1.07Q347.43-1.1 345.96-1.72 344.5-2.34 343.28-3.38 342.06-4.42 341.08-5.8 340.1-7.18 339.43-8.7 338.76-10.23 338.41-11.82 338.05-13.4 338.05-14.89L338.05-14.89Q338.05-17.09 338.14-19.45 338.22-21.8 338.44-24.17 338.66-26.54 339.02-28.86 339.37-31.18 339.91-33.3L339.91-33.3Q342.89-33.15 345.89-33.03 348.89-32.91 351.87-32.96L351.87-32.96Q351.31-30.83 350.76-28.7 350.21-26.56 349.77-24.4 349.33-22.24 349.06-20.07 348.8-17.9 348.8-15.67L348.8-15.67Q348.8-15.16 348.84-14.21 348.89-13.26 349.1-12.33 349.31-11.4 349.74-10.71 350.16-10.01 350.94-10.01L350.94-10.01Q351.87-10.01 352.6-10.8 353.34-11.6 353.9-12.94 354.46-14.28 354.86-16.04 355.27-17.8 355.55-19.71 355.83-21.63 356-23.58 356.17-25.54 356.25-27.26 356.34-28.98 356.38-30.35 356.41-31.71 356.41-32.47L356.41-32.47Q356.41-32.96 356.39-33.42 356.36-33.89 356.32-34.38L356.32-34.38Q357.9-34.33 359.46-34.3 361.03-34.28 362.61-34.28L362.61-34.28Q363.83-34.28 365.07-34.29 366.3-34.3 367.55-34.38ZM396.67-19.38L396.67-19.38Q396.67-15.97 395.79-13.26 394.91-10.55 393.34-8.46 391.76-6.37 389.59-4.91 387.42-3.44 384.83-2.5 382.24-1.56 379.32-1.12 376.41-0.68 373.33-0.68L373.33-0.68Q372.18-0.68 371.08-0.74 369.98-0.81 368.84-0.93L368.84-0.93 369.52-32.71Q372.21-33.57 375.05-33.92 377.89-34.28 380.7-34.28L380.7-34.28Q384.19-34.28 387.12-33.3 390.05-32.32 392.18-30.43 394.3-28.54 395.49-25.77 396.67-23 396.67-19.38ZM381.04-24.17L380.07-10.01Q381.53-10.23 382.74-10.9 383.95-11.57 384.83-12.56 385.71-13.55 386.18-14.81 386.66-16.06 386.66-17.48L386.66-17.48Q386.66-18.87 386.37-20.08 386.07-21.29 385.41-22.18 384.76-23.07 383.68-23.6 382.61-24.12 381.04-24.17L381.04-24.17ZM425.84-19.38L425.84-19.38Q425.84-15.97 424.96-13.26 424.08-10.55 422.51-8.46 420.93-6.37 418.76-4.91 416.59-3.44 414-2.5 411.41-1.56 408.5-1.12 405.58-0.68 402.5-0.68L402.5-0.68Q401.35-0.68 400.26-0.74 399.16-0.81 398.01-0.93L398.01-0.93 398.69-32.71Q401.38-33.57 404.22-33.92 407.07-34.28 409.87-34.28L409.87-34.28Q413.37-34.28 416.3-33.3 419.23-32.32 421.35-30.43 423.47-28.54 424.66-25.77 425.84-23 425.84-19.38ZM410.22-24.17L409.24-10.01Q410.7-10.23 411.91-10.9 413.12-11.57 414-12.56 414.88-13.55 415.36-14.81 415.83-16.06 415.83-17.48L415.83-17.48Q415.83-18.87 415.54-20.08 415.25-21.29 414.59-22.18 413.93-23.07 412.85-23.6 411.78-24.12 410.22-24.17L410.22-24.17ZM444.49-33.89L456.21-33.06 444.74-14.31 445.08-0.49 432.53-0.49 432.82-14.21 423.89-32.32 436.34-33.89 440.24-23.34 444.49-33.89ZM457.11-36.28L469.07-36.28 467.07-10.6 458.04-10.6 457.11-36.28ZM467.46-3.08L467.46-3.08Q467.46-2 467.05-1.07 466.63-0.15 465.94 0.55 465.24 1.25 464.31 1.65 463.39 2.05 462.34 2.05L462.34 2.05Q461.26 2.05 460.33 1.65 459.41 1.25 458.71 0.55 458.01-0.15 457.61-1.07 457.21-2 457.21-3.08L457.21-3.08Q457.21-4.13 457.61-5.08 458.01-6.03 458.71-6.73 459.41-7.42 460.33-7.84 461.26-8.25 462.34-8.25L462.34-8.25Q463.39-8.25 464.31-7.84 465.24-7.42 465.94-6.73 466.63-6.03 467.05-5.08 467.46-4.13 467.46-3.08Z" opacity="1" transform="matrix(1,0,0,1,0,0)" fill="#000000" class="slogan-text-1" data-fill-palette-color="secondary" id="text-1"></path></svg></g></svg></g></svg></g></svg></g><g transform="matrix(1,0,0,1,108.80760398404404,0)"><svg viewBox="0 0 177.9047920319119 177.9047920319119" height="177.9047920319119" width="177.9047920319119"><g><svg></svg></g><g id="icon-0"><svg viewBox="0 0 177.9047920319119 177.9047920319119" height="177.9047920319119" width="177.9047920319119"><g><path d="M0 88.952c0-49.127 39.825-88.952 88.952-88.952 49.127 0 88.952 39.825 88.953 88.952 0 49.127-39.825 88.952-88.953 88.953-49.127 0-88.952-39.825-88.952-88.953zM88.952 174.001c46.971 0 85.049-38.078 85.049-85.049 0-46.971-38.078-85.049-85.049-85.049-46.971 0-85.049 38.078-85.049 85.049 0 46.971 38.078 85.049 85.049 85.049z" data-fill-palette-color="tertiary" fill="#000000" stroke="transparent"></path></g><g transform="matrix(1,0,0,1,35.49467162157204,45.48348359165861)"><svg viewBox="0 0 106.91544878876783 86.93782484859469" height="86.93782484859469" width="106.91544878876783"><g><svg version="1.1" xmlns="http://www.w3.org/2000/svg" xmlns:xlink="http://www.w3.org/1999/xlink" x="0" y="0" viewBox="0 0.0002883635461330414 99.99897003173828 81.313720703125" enable-background="new 0 0 100 81.314" xml:space="preserve" width="106.91544878876783" height="86.93782484859469" class="icon-s-0" data-fill-palette-color="accent" id="s-0"><path fill="#000000" d="M39.74 2.399l-0.255-1.1c1.479-0.344 2.989-0.619 4.49-0.83l0.158 1.121C42.664 1.793 41.185 2.068 39.74 2.399z" data-fill-palette-color="accent"></path><path fill="#000000" d="M61.917 2.333c-1.442-0.328-2.919-0.587-4.403-0.777l0.15-1.122c1.515 0.195 3.027 0.464 4.497 0.795L61.917 2.333z" data-fill-palette-color="accent"></path><path fill="#000000" d="M48.589 1.184l-0.053-1.129c1.524-0.071 3.071-0.071 4.572-0.011l-0.042 1.132C51.574 1.114 50.075 1.114 48.589 1.184z" data-fill-palette-color="accent"></path><path fill="#000000" d="M7.252 77.205c0.784 1.306 1.633 2.586 2.525 3.809l0.914-0.669c-0.872-1.192-1.704-2.441-2.473-3.722L7.252 77.205z" data-fill-palette-color="accent"></path><path fill="#000000" d="M3.267 68.983c0.54 1.431 1.146 2.845 1.806 4.199l1.015-0.493c-0.642-1.324-1.236-2.707-1.766-4.102L3.267 68.983z" data-fill-palette-color="accent"></path><path fill="#000000" d="M0.826 60.179c0.275 1.498 0.617 2.999 1.022 4.455l1.09-0.301c-0.396-1.427-0.731-2.893-1-4.358L0.826 60.179z" data-fill-palette-color="accent"></path><path fill="#000000" d="M1.13 51.082H0c0.002 1.518 0.073 3.054 0.21 4.569l1.125-0.102C1.2 54.065 1.131 52.564 1.13 51.082z" data-fill-palette-color="accent"></path><path fill="#000000" d="M1.906 42.183l-1.113-0.2c-0.264 1.493-0.467 3.015-0.6 4.535l1.125 0.096C1.449 45.129 1.645 43.637 1.906 42.183z" data-fill-palette-color="accent"></path><path fill="#000000" d="M4.255 33.562l-1.059-0.393c-0.533 1.435-1.005 2.896-1.402 4.349l1.091 0.299C3.274 36.398 3.736 34.967 4.255 33.562z" data-fill-palette-color="accent"></path><path fill="#000000" d="M8.117 25.509l-0.972-0.577c-0.776 1.302-1.502 2.658-2.16 4.031l1.019 0.485C6.647 28.111 7.358 26.781 8.117 25.509z" data-fill-palette-color="accent"></path><path fill="#000000" d="M9.661 21.114l0.915 0.662c0.871-1.202 1.807-2.379 2.782-3.5l-0.853-0.743C11.506 18.677 10.55 19.885 9.661 21.114z" data-fill-palette-color="accent"></path><path fill="#000000" d="M19.088 11.207c-1.179 0.943-2.336 1.959-3.433 3.01l0.782 0.821c1.075-1.034 2.207-2.031 3.357-2.949L19.088 11.207z" data-fill-palette-color="accent"></path><path fill="#000000" d="M86.074 14.006c-1.095-1.042-2.256-2.048-3.447-2.998l-0.707 0.888c1.172 0.926 2.305 1.911 3.379 2.93L86.074 14.006z" data-fill-palette-color="accent"></path><path fill="#000000" d="M27.234 7.137l-0.54-0.989c-1.324 0.715-2.641 1.509-3.916 2.357l0.628 0.936C24.651 8.614 25.939 7.842 27.234 7.137z" data-fill-palette-color="accent"></path><path fill="#000000" d="M78.917 8.329c-1.266-0.831-2.585-1.616-3.935-2.336L74.454 6.99C75.764 7.69 77.059 8.46 78.3 9.272L78.917 8.329z" data-fill-palette-color="accent"></path><path fill="#000000" d="M35.434 3.599l-0.354-1.072c-1.455 0.477-2.894 1.024-4.272 1.621l0.446 1.038C32.604 4.601 34.013 4.071 35.434 3.599z" data-fill-palette-color="accent"></path><path fill="#000000" d="M70.862 4.023c-1.392-0.586-2.834-1.125-4.288-1.593l-0.345 1.077c1.423 0.455 2.831 0.981 4.191 1.559L70.862 4.023z" data-fill-palette-color="accent"></path><path fill="#000000" d="M99.129 26.774l-2.716-2.711 1.117-9.237-1.241-1.23-3.197 7.139-1.85-1.846c-0.161-0.163-0.379-0.287-0.609-0.361l0.624-3.083-0.992-0.993-1.476 3.457-3.455 1.474 0.989 0.994 3.087-0.624c0.075 0.229 0.199 0.446 0.362 0.61l1.85 1.85-7.144 3.201 1.227 1.236 9.245-1.112 2.707 2.711c0.5 0.507 1.162 0.816 1.873 0.867 0.124 0 0.247-0.036 0.339-0.124 0.084-0.089 0.138-0.211 0.129-0.335C99.946 27.94 99.636 27.278 99.129 26.774z" data-fill-palette-color="accent"></path><path fill="#000000" d="M51.09 15.112c-18.253 0-33.101 14.848-33.101 33.101 0 18.251 14.848 33.101 33.101 33.101 18.251 0 33.101-14.85 33.101-33.101C84.191 29.96 69.341 15.112 51.09 15.112zM78.073 53.609c0.601 0.607 0.87 1.167 0.991 1.774C75.867 67.848 64.537 77.089 51.09 77.089c-4.979 0-9.666-1.267-13.759-3.494 0.041-0.179 0.081-0.361 0.121-0.555 0.244-1.177 2.063-1.742 2.844-2.521 0.761-0.762 2.275-1.223 2.745-2.219 0.308-0.653-0.128-1.49 0.134-2.099 0.199-0.458 0.958-0.957 1.314-1.314 0.894-0.894 1.564-3.22 1.564-4.442-1.338 0-2.675 0-4.012 0-1.267 0-1.021-1.498-1.026-2.429-0.001-0.5 0.031-1.111-0.212-1.568-0.277-0.52-1.174-0.368-1.655-0.612-0.837-0.425-1.531-1.257-1.695-2.192-0.108-0.613-0.086-1.062-0.857-1.032-0.758 0.032-1.462 0.639-2.167 0.639-0.885 0-1.77 0-2.655 0-1.957 0-3.914 0-5.869 0 0 0.317-0.18 1.349 0.109 1.494 0.723 0.36 1.445 0.722 2.167 1.083 1.078 0.54 1.394 1.889 1.921 2.941 0.518 1.036 1.105 2.054 1.559 3.116 0.562 1.314 0.97 2.777 1.993 3.833 0.431 0.445 1.267 0.354 1.45 0.967 0.232 0.77-0.007 1.71-0.184 2.468-0.196 0.839-0.442 1.668-0.659 2.502-5.966-4.296-10.229-10.807-11.581-18.319 0.402-0.031 0.805-0.085 1.039-0.085 0.78 0 0.804-0.058 1.369-0.621 0.495-0.495 0.817-0.642 0.817-1.324 0-0.79 0-1.583 0-2.372 0.96 0.479 1.918 0.96 2.878 1.438 0.042-1.163 0.873-1.312 1.831-1.473 1.138-0.188 1.887-1.405 2.941-1.405 0.869 0 1.23 0.166 2.046 0.43 0.428 0.141 0.965 0.304 1.412 0.165 0.601-0.188 0.459-1.261 0.667-1.743 0.299-0.697 0.754-1.683 1.56-1.75 0.876-0.07 2.012-0.465 1.056-1.419-1.049-1.049-1.833-2.387-2.542-3.68-0.303-0.555-0.379-1.43-0.89-1.813-1.116-0.838-2.792 0.298-3.63 1.05-0.471 0.425 0.268 1.402-0.379 1.675-1.052 0.446-2.425 0.804-3.511 0.285-0.592-0.283-0.958-0.977-1.63-1.101-0.464-0.084-0.37-0.214-0.37-0.734 0-0.876 0-1.754 0-2.631 0-0.364 0.101-0.221 0.432-0.316 1.303-0.374 0.534-2.07 1.825-2.091 1.497-0.025 0.019-2.576-0.386-3.096-0.227-0.292-0.453-0.423-0.7-0.482 5.295-6.638 13.444-10.903 22.576-10.903 8.311 0 15.809 3.534 21.082 9.173-1.552 1.686-3.22 3.605-4.354 4.456-0.778 0.583-1.786 0.937-2.655 1.371-0.867 0.435-2.043 0.202-2.993 0.202-0.247 0-3.165-0.04-3.165 0.036 0 0.865 0.433 2.625-0.402 3.044-0.997 0.498-2.116 0.878-2.909 1.669-0.225 0.225-1.146 0.867-0.881 1.133 0.001 0.001 0.002 0.002 0.004 0.003-0.145-0.078-0.294-0.128-0.449-0.123-1.129 0.038-2.53 0.086-3.514 0.708-0.624 0.394-0.455 0.99-0.538 1.645-0.094 0.736-0.325 1.515-0.854 2.06-0.632 0.652-0.531 0.759-0.531 1.817 1.119-0.124 2.24-0.249 3.362-0.372 0.132-0.018 0.955-0.022 0.955-0.169 0-0.278-0.157-1.22 0.034-1.411 0.424-0.424 0.853-0.853 1.28-1.28 0.259-0.259 0.73 0.48 0.942 0.693 0.39 0.389 0.771 0.472 0.357 0.882-0.391 0.394-0.784 0.787-1.175 1.178 0.174 0 1.437 0.047 1.44-0.033 0.051-1.074 0.701-2.108 1.438-2.845 0.796-0.796 1.887-0.805 2.745-0.117 0.347 0.28 0.134 1.179 0.134 1.556 0 0.253-0.07 2.878 0.062 2.878 0.633 0 1.185 0.146 1.67-0.265 1.667-1.403 3.848-1.067 5.464-2.613 0.479 0.959 0.96 1.918 1.439 2.878-1.143 0.382-2.287 0.762-3.43 1.143-0.09 0.029-0.862 0.346-0.902 0.269-0.261-0.513-0.539-1.039-0.894-1.495-0.472-0.607-0.59-0.08-0.497 0.478 0.151 0.922 0.736 1.785 1.371 2.451 0.666 0.698 1.039 2.043 1.473 2.912-0.09-1.769 2.485 1.045 2.879 1.438 0.608-0.608 1.22-1.22 1.827-1.826 0.304-0.304 0.604-0.604 0.905-0.905 0.244-0.245-0.028-0.315-0.216-0.579-1.016-1.42 1.593-1.007 2.386-1.007 1.498 0 2.637 0.391 3.732 1.439C76.322 51.74 77.753 53.287 78.073 53.609z" data-fill-palette-color="accent"></path><path fill="#000000" d="M52.289 37.419c-0.318 0.32-0.64 0.639-0.958 0.96-0.328 0.12-0.87 0.143-0.89 0.521-0.024 0.467-0.045 0.931-0.07 1.398 0.627-0.313 1.254-0.627 1.88-0.939C52.451 39.258 52.289 37.697 52.289 37.419z" data-fill-palette-color="accent"></path><path fill="#000000" d="M55.143 35.98c0.357 0 0.984 0.2 0.984-0.225 0-0.009 0-0.019 0-0.027 0.069 0.137 0.193 0.223 0.386 0.241-0.115 0.484-0.241 0.968-0.386 1.451 0.438-0.438 0.874-0.875 1.313-1.314 0.294-0.294 0.125-1.03 0.125-1.42 0-0.068 0-0.137 0-0.206 0-0.938 0-1.878 0-2.817-0.027 0.055-0.075 0.144-0.132 0.248-0.018-0.203-0.027-0.402-0.048-0.607-0.056 0.337-0.111 0.671-0.167 1.006-0.368 0.688-0.897 1.733-1.092 2.534 0-0.121 0-0.242 0-0.363 0-0.938 0-1.878 0-2.817C55.836 32.244 53.612 35.98 55.143 35.98z" data-fill-palette-color="accent"></path><path fill="#000000" d="M68.034 58.973c0.94-0.157 1.805-0.756 2.485-1.405-1.067-0.355-2.131-0.711-3.199-1.066-1.194-0.398-1.197-0.527-1.775-1.686-0.453-0.909-0.766-1.549-1.471-2.254-0.515-0.515-2.19-1.66-2.19-2.415 0-1.149 0.223-1.214-0.853-1.214-1.348 0-2.695 0-4.044 0-2.206 0-4.411 0-6.616 0-0.87 0.882-1.714 1.841-2.353 2.906-1.137 1.895 0.285 2.842 1.53 4.205 1.332 1.457 0.816 3.931 3.308 4.368 0.889 0.154 1.894 0.033 2.794 0.033 0.107 0 2.08-0.278 1.89-0.624 0.209 0.375 0.094 1.417 0.168 1.872 0.169 1.021 0.39 2.035 0.616 3.044 0.267 1.203 0.683 2.39 0.683 3.624 0 1.269 1.321 2.04 2.189 2.909 0.33 0.33 0.519 0.688 0.988 0.688 0.811 0 1.626 0 2.438 0 0.404 0-0.35-4.992 0.929-5.623 0.365-0.18 1.087 0.021 1.303-0.396 0.149-0.283-0.014-0.631 0.135-0.913 0.358-0.69 1.203-0.016 1.285-1.152 0.064-0.922-0.099-2.825-0.749-3.555C66.734 59.431 66.98 59.15 68.034 58.973z" data-fill-palette-color="accent"></path><path fill="#000000" d="M46.035 28.767c-0.732-0.723-1.521-1.408-2.367-1.996-1.143-0.794-2.004-0.865-3.372-0.865-0.654 0-1.321-0.045-1.973 0.008-0.281 0.023-0.172 0.337-0.253 0.545-0.491 1.256-2.532 2.765-3.531 3.764 1.382 0 2.153 2.867 2.677 3.915 0.315 0.629 0.202 1.283 0.202 1.986 0 1.029-0.089 1.207 0.622 1.918 0.706 0.706 0.646 0.989 1.343 0.292 0.701-0.701 1.401-1.401 2.101-2.101 0.46-0.462 0.251-1.21 0.251-1.836 0-0.924-0.328-1.295 0.607-1.295 0.718 0 1.392 0.064 1.97-0.432 0.438-0.378 0.779-0.854 1.381-0.973 0.668-0.132 2.08-0.371 1.798-1.474C47.377 29.776 46.377 29.105 46.035 28.767z" data-fill-palette-color="accent"></path></svg></g></svg></g></svg></g></svg></g><g></g></svg></g><defs></defs></svg><rect width="361.42280417182457" height="247.2" fill="none" stroke="none" visibility="hidden"></rect></g></svg></g></svg>